<svg width="1354" height="188" viewBox="0 0 1354 188" fill="none" xmlns="http://www.w3.org/2000/svg">
<path d="M62.006 48.302C57.728 47.186 54.194 46.814 49.544 46.814C19.598 46.814 0.254 65.786 0.254 94.988C0.254 125.306 18.482 141.116 53.45 141.116C65.168 141.116 75.956 140 90.65 137.21V0.499989H62.006V48.302ZM62.006 117.308C57.914 117.866 55.31 118.052 52.148 118.052C37.268 118.052 29.27 109.682 29.27 94.43C29.27 78.806 37.64 69.878 52.334 69.878C55.868 69.878 58.658 70.25 62.006 71.366V117.308ZM116.648 48.86V105.404C116.648 130.328 115.346 139.814 111.254 147.998C107.348 155.996 101.21 161.204 88.5619 167.156L115.16 179.804C127.808 173.48 133.946 167.714 138.596 158.6C143.618 149.114 145.292 138.14 145.292 115.262V48.86H116.648ZM116.648 34.166H145.292V4.77799H116.648V34.166ZM172.265 77.504C183.425 71.738 195.329 68.762 205.931 68.762C213.185 68.762 215.789 70.622 215.789 75.83V82.154C180.635 85.13 166.313 94.43 166.313 114.518C166.313 133.118 177.101 141.488 201.095 141.488C212.999 141.488 229.181 140.186 242.015 138.326V80.108C242.015 68.204 241.271 62.624 238.853 58.346C234.575 50.72 224.903 46.814 210.209 46.814C197.003 46.814 184.913 49.418 172.265 55.37V77.504ZM217.091 120.098C211.511 121.028 207.605 121.4 203.327 121.4C195.515 121.4 191.981 118.796 191.981 113.216C191.981 105.776 198.119 102.8 217.091 100.94V120.098ZM265.199 140H293.843V71.924C299.609 70.25 303.143 69.878 307.049 69.878C317.279 69.878 320.999 73.97 320.999 84.944V140H349.643V83.828C349.643 69.506 347.783 62.81 341.831 56.672C335.507 50.162 324.905 46.814 310.211 46.814C296.075 46.814 282.125 48.86 265.199 53.324V140ZM369.914 182.036C379.958 185.942 389.63 187.616 400.79 187.616C422.738 187.616 438.176 180.734 447.104 166.784C453.242 157.298 455.288 145.766 455.288 121.214C455.288 118.61 455.288 116.936 455.288 113.402C455.102 109.496 455.102 105.59 454.916 101.684L454.73 86.06L454.358 73.97V70.994C460.124 71.552 462.914 72.11 470.54 73.598V51.092C456.776 48.302 445.43 47 433.154 47C391.304 47 367.682 65.414 367.682 97.964C367.682 124.19 383.678 140.744 408.788 140.744C416.228 140.744 421.808 139.628 427.388 136.838C427.388 137.024 427.388 137.21 427.388 137.396C427.388 155.624 419.39 163.25 400.604 163.25C390.002 163.25 379.958 160.832 369.914 155.624V182.036ZM426.83 72.296L427.016 81.782L427.202 94.988C427.202 98.894 427.388 102.614 427.388 105.962V113.774V115.82C423.668 116.936 420.32 117.68 416.6 117.68C403.952 117.68 396.698 109.496 396.698 95.174C396.698 85.13 400.232 78.062 407.114 74.156C411.764 71.366 418.088 69.878 423.854 70.064H425.9C426.272 70.064 426.458 70.064 426.83 70.064V72.296ZM478.881 95.36C478.881 124.376 496.551 142.418 525.195 142.418C554.211 142.418 572.439 123.632 572.439 93.686C572.439 64.484 554.955 46.442 526.311 46.442C497.109 46.442 478.881 65.228 478.881 95.36ZM507.897 94.43C507.897 78.62 514.407 69.506 525.939 69.506C537.099 69.506 543.423 78.806 543.423 94.43C543.423 110.24 536.913 119.354 525.753 119.354C514.407 119.354 507.897 110.24 507.897 94.43Z" fill="#0C4B33"/>
<path d="M591.971 122.888V64.484L609.083 47.372H653.723L670.835 64.484V75.83H657.071V68.762L647.771 59.648H615.035L605.735 68.762V118.61L615.035 127.724H647.771L657.071 118.61V111.542H670.835V122.888L653.723 140H609.083L591.971 122.888ZM691.328 122.888V64.484L708.44 47.372H756.056L773.168 64.484V122.888L756.056 140H708.44L691.328 122.888ZM750.104 127.724L759.404 118.61V68.762L750.104 59.648H714.392L705.092 68.762V118.61L714.392 127.724H750.104ZM797.406 122.888V64.484L814.518 47.372H850.23L865.482 60.764V7.19599H879.246V140H865.854V123.074L848.928 140H814.518L797.406 122.888ZM845.952 127.724L865.482 108.194V75.272L847.626 59.648H820.47L811.17 68.762V118.61L820.47 127.724H845.952ZM905.301 122.888V64.484L922.413 47.372H969.099L986.397 64.484V97.778H919.065V118.61L928.365 127.724H963.147L972.447 118.61V111.542H986.211V122.888L969.099 140H922.413L905.301 122.888ZM972.633 85.874V68.762L963.333 59.648H928.365L919.065 68.762V85.874H972.633ZM1011.42 47.372H1024.81V65.228L1042.67 47.372H1064.8L1079.31 61.88L1093.82 47.372H1123.02L1140.13 64.484V140H1126.37V68.762L1117.07 59.648H1096.61L1083.59 72.668V140H1070.2V68.762L1060.9 59.648H1045.27L1025.19 79.736V140H1011.42V47.372ZM1165.23 122.888V64.484L1182.34 47.372H1229.96L1247.07 64.484V122.888L1229.96 140H1182.34L1165.23 122.888ZM1224 127.724L1233.3 118.61V68.762L1224 59.648H1188.29L1178.99 68.762V118.61L1188.29 127.724H1224ZM1271.31 122.888V64.484L1288.42 47.372H1324.13L1339.38 60.764V7.19599H1353.15V140H1339.75V123.074L1322.83 140H1288.42L1271.31 122.888ZM1319.85 127.724L1339.38 108.194V75.272L1321.53 59.648H1294.37L1285.07 68.762V118.61L1294.37 127.724H1319.85Z" fill="#73B32A"/>
</svg>
